#!OML:ASF F:\VICON\USERDATA\INSTALL\rory3\rory3.ASF
:FULLY-SPECIFIED
:DEGREES
215
root -6.94984 19.6659 2.98124 -16.5643 -85.4913 13.6176
lowerback 5.24427 1.06267 -3.41451
upperback -2.20855 1.14122 -0.353403
thorax -5.29895 0.671422 1.43736
lowerneck -14.2652 -2.12559 -7.60367
upperneck -14.0359 -2.08047 7.1602
head -1.99074 -1.03477 3.69237
rclavicle -1.61761e-014 4.57205e-015
rhumerus 75.3167 -24.2334 -45.7076
rradius 40.8136
rwrist 24.5797
rhand -34.7999 2.26858
rfingers 7.12502
rthumb -7.95162 -27.5619
lclavicle -1.61761e-014 4.57205e-015
lhumerus 79.3158 26.0992 38.7958
lradius 39.491
lwrist -5.18824
lhand -26.3184 24.1525
lfingers 7.12502
lthumb 0.238187 54.1321
rfemur -4.71918 19.1463 16.3093
rtibia 35.1119
rfoot 9.33007 0.670283
rtoes -11.673
lfemur -7.08336 -3.09047 -23.5509
ltibia 31.5657
lfoot 5.23317 10.1506
ltoes -18.782
216
root -6.97028 19.6176 2.99522 -18.7616 -85.5746 15.6396
lowerback 5.21833 1.09299 -3.68067
upperback -2.1323 1.16675 -0.320623
thorax -5.21286 0.691551 1.61936
lowerneck -13.9034 -2.12749 -7.74255
upperneck -14.1294 -2.07328 7.27987
head -2.08142 -1.02854 3.76879
rclavicle 3.41661e-015 -8.34896e-015
rhumerus 74.8489 -24.1609 -45.2366
rradius 41.5294
rwrist 23.6725
rhand -34.9754 1.6246
rfingers 7.12502
rthumb -8.12101 -28.1994
lclavicle 3.41661e-015 -8.34896e-015
lhumerus 79.5917 26.1341 38.7276
lradius 39.6161
lwrist -4.8692
lhand -25.6602 24.2262
lfingers 7.12502
lthumb 0.87389 54.2042
rfemur -4.41389 19.3268 15.8457
rtibia 35.1119
rfoot 8.90744 2.40776
rtoes -12.2454
lfemur -6.77262 -2.88549 -23.8668
ltibia 31.7309
lfoot 4.16045 10.3469
ltoes -19.0656
217
root -6.99133 19.5678 3.00918 -21.3564 -85.5932 18.0713
lowerback 5.23142 1.07283 -3.98517
upperback -2.10226 1.11811 -0.305295
thorax -5.19373 0.677103 1.81092
lowerneck -13.5943 -2.03122 -7.7419
upperneck -14.0894 -1.95443 7.30342
head -2.12821 -0.970293 3.78417
rclavicle 1.38901e-014 4.77083e-015
rhumerus 74.5661 -23.9225 -45.0503
rradius 42.1815
rwrist 23.1439
rhand -34.8597 0.991228
rfingers 7.12502
rthumb -8.00939 -28.837
lclavicle 1.38901e-014 4.77083e-015
lhumerus 79.6013 26.1598 38.3671
lradius 39.8111
lwrist -4.84728
lhand -25.3199 24.4866
lfingers 7.12502
lthumb 1.20263 54.4629
rfemur -4.11717 19.5868 15.381
rtibia 35.1425
rfoot 8.24692 4.33068
rtoes -13.8361
lfemur -6.43772 -2.66143 -24.1907
ltibia 31.8103
lfoot 3.27101 10.3168
ltoes -19.9763
218
root -7.01311 19.5201 3.01876 -23.6699 -85.5602 20.2336
lowerback 5.1837 1.08366 -4.30303
upperback -2.03627 1.11355 -0.298986
thorax -5.10495 0.68279 1.99761
lowerneck -13.3698 -2.06057 -7.88554
upperneck -14.0232 -1.97679 7.39503
head -2.13911 -0.975009 3.8455
rclavicle 2.73329e-015 -4.77083e-015
rhumerus 74.3392 -23.863 -44.9279
rradius 42.7472
rwrist 22.9578
rhand -34.7924 1.35235
rfingers 7.12502
rthumb -7.94438 -28.4784
lclavicle 2.73329e-015 -4.77083e-015
lhumerus 79.7206 26.1069 38.1243
lradius 39.9841
lwrist -5.17571
lhand -25.3064 24.3732
lfingers 7.12502
lthumb 1.21561 54.3495
rfemur -3.80847 20.0019 14.9792
rtibia 35.1895
rfoot 7.25289 6.14925
rtoes -14.9721
lfemur -6.06265 -2.62777 -24.4843
ltibia 31.8438
lfoot 2.31834 10.248
ltoes -20.4674
219
root -7.03559 19.4715 3.02719 -25.9869 -85.4389 22.439
lowerback 5.07506 1.0972 -4.59757
upperback -1.98693 1.11387 -0.358959
thorax -4.9974 0.688135 2.10263
lowerneck -13.1379 -2.15578 -7.94355
upperneck -13.9334 -2.1044 7.3666
head -2.13545 -1.03425 3.84254
rclavicle 1.65737e-014 -3.18055e-015
rhumerus 74.0046 -23.9356 -44.7651
rradius 43.3013
rwrist 22.7741
rhand -34.4323 1.83279
rfingers 7.12502
rthumb -7.59685 -28.0108
lclavicle 1.65737e-014 -3.18055e-015
lhumerus 79.8973 25.9756 37.9446
lradius 40.2055
lwrist -5.48787
lhand -25.1796 23.6151
lfingers 7.12502
lthumb 1.33812 53.5907
rfemur -3.5562 20.3332 14.5333
rtibia 35.2513
rfoot 6.1852 7.86783
rtoes -15.5353
lfemur -5.7075 -2.83654 -24.8282
ltibia 31.8499
lfoot 1.48654 10.2134
ltoes -21.6138
